<svg aria-hidden="true" width="568" height="87" viewBox="0 0 282 172" xmlns="http://www.w3.org/2000/svg">
  <g fill-rule="nonzero" fill="none">
	<path id="Studio Guy Rheaume" fill="#f6de3e" aria-label="Studio Guy Rheaume"  d="M23.54 12.99L23.54 12.99L22.97 12.99Q16.9 13.04 12.63 17.3Q8.37 21.57 8.33 27.64L8.33 40.72Q8.37 46.63 12.47 50.89Q16.57 55.12 22.44 55.36L22.44 55.36L23.01 55.36Q24.24 55.36 25.1 56.22Q25.96 57.09 25.96 58.32Q25.96 59.51 25.1 60.37Q24.24 61.23 23.01 61.23L8.33 61.23L8.33 73L23.01 73Q29.12 73 33.43 68.69Q37.7 64.39 37.7 58.32Q37.7 52.37 33.59 48.1Q29.45 43.84 23.54 43.63L23.54 43.63L23.01 43.59Q21.82 43.59 20.96 42.77Q20.1 41.91 20.1 40.68L20.1 27.68Q20.1 27.55 20.1 27.39Q20.1 27.39 20.1 27.27Q20.14 27.14 20.14 27.1Q20.14 27.1 20.18 26.98Q20.22 26.82 20.22 26.82L20.26 26.65Q20.3 26.53 20.3 26.53Q20.35 26.45 20.43 26.32Q20.47 26.24 20.43 26.28Q20.47 26.2 20.55 26.08L20.59 26.08Q20.59 26.04 20.59 26.04Q20.63 25.96 20.71 25.83L20.76 25.83Q20.76 25.83 20.76 25.83Q20.84 25.71 20.92 25.63L20.96 25.63Q21.04 25.5 21.17 25.42Q21.95 24.77 23.01 24.77L23.01 24.77Q24.24 24.77 25.1 25.63Q25.96 26.49 25.96 27.68L25.96 33.71L37.7 33.71L37.7 27.68Q37.7 21.73 33.59 17.46Q29.45 13.2 23.54 12.99ZM69.2 34.2L69.2 22.43L39.83 22.43L39.83 34.2L48.56 34.2L48.56 73L60.29 73L60.29 34.2L69.2 34.2ZM100.08 22.43L88.35 22.43L88.35 59.55Q88.35 60.74 87.49 61.6Q86.63 62.46 85.4 62.46Q84.21 62.46 83.35 61.6Q82.48 60.74 82.48 59.55L82.48 22.43L70.71 22.43L70.71 59.55Q70.71 65.62 75.02 69.92Q79.33 74.23 85.4 74.23Q91.51 74.23 95.81 69.92Q100.08 65.62 100.08 59.55L100.08 22.43ZM121.78 37.07L121.78 58.28Q121.78 59.51 120.92 60.37Q120.05 61.23 118.87 61.23L115.91 61.23L115.91 34.16L118.87 34.16Q120.05 34.16 120.92 35.02Q121.78 35.88 121.78 37.07ZM133.55 58.36L133.55 37.03Q133.51 30.96 129.24 26.69Q124.98 22.43 118.91 22.39L104.14 22.39L104.14 73L118.91 73Q124.98 72.96 129.24 68.69Q133.51 64.43 133.55 58.36ZM149.26 22.39L149.26 73.04L137.49 73.04L137.49 22.39L149.26 22.39ZM171.65 35.88L171.65 59.51Q171.65 60.74 170.79 61.6Q169.93 62.46 168.7 62.46Q167.47 62.46 166.61 61.6Q165.75 60.74 165.75 59.51L165.75 35.88Q165.75 34.65 166.61 33.79Q167.47 32.93 168.7 32.93Q169.93 32.93 170.79 33.79Q171.61 34.65 171.65 35.88ZM183.38 59.59L183.38 35.8Q183.34 29.73 179.04 25.46Q174.77 21.2 168.7 21.2Q162.67 21.2 158.36 25.46Q154.06 29.69 154.02 35.76L154.02 59.67Q154.06 65.7 158.36 69.92Q162.67 74.19 168.7 74.19Q174.77 74.19 179.04 69.92Q183.34 65.66 183.38 59.59ZM218.33 12.95L218.33 12.95L217.71 12.95Q211.64 12.99 207.38 17.26Q203.11 21.57 203.07 27.6L203.07 59.18Q203.11 65.25 207.38 69.55Q211.64 73.82 217.71 73.86L218.33 73.86L232.48 73.21L232.48 44.41L217.92 44.41L217.92 56.18L220.71 56.18L220.71 62.09L217.79 62.09Q216.56 62.09 215.7 61.23Q214.84 60.37 214.84 59.14L214.84 27.68Q214.84 27.51 214.84 27.35Q214.84 27.39 214.88 27.27Q214.88 27.1 214.88 27.06Q214.88 27.1 214.92 26.94Q214.96 26.82 214.96 26.78L215.01 26.65Q215.09 26.49 215.09 26.53Q215.13 26.41 215.17 26.28Q215.21 26.24 215.21 26.24Q215.25 26.16 215.33 26.08L215.33 26.04Q215.42 25.91 215.5 25.79Q215.58 25.71 215.62 25.67Q215.7 25.59 215.7 25.59Q215.79 25.46 215.91 25.38Q216.73 24.72 217.79 24.72Q218.98 24.72 219.85 25.59Q220.71 26.45 220.71 27.68L220.71 33.67L232.48 33.67L232.48 27.68Q232.48 21.73 228.34 17.42Q224.23 13.16 218.33 12.95ZM266.07 22.43L254.34 22.43L254.34 59.55Q254.34 60.74 253.48 61.6Q252.62 62.46 251.39 62.46Q250.2 62.46 249.34 61.6Q248.47 60.74 248.47 59.55L248.47 22.43L236.7 22.43L236.7 59.55Q236.7 65.62 241.01 69.92Q245.32 74.23 251.39 74.23Q257.5 74.23 261.8 69.92Q266.07 65.62 266.07 59.55L266.07 22.43ZM300.03 22.43L288.3 22.43L288.3 40.68Q288.3 41.91 287.44 42.77Q286.58 43.63 285.35 43.63Q284.16 43.63 283.3 42.77Q282.44 41.91 282.44 40.68L282.44 22.43L270.66 22.43L270.66 40.68Q270.66 45.15 273.17 48.88Q275.59 52.49 279.61 54.17L279.61 73L291.34 73L291.34 54.09Q295.27 52.33 297.61 48.76Q300.03 45.11 300.03 40.68L300.03 22.43ZM334.24 43.63L331.33 43.63L331.33 26L334.24 26Q335.47 26 336.33 26.86Q337.19 27.72 337.19 28.91L337.19 40.68Q337.19 41.91 336.33 42.77Q335.47 43.59 334.24 43.63ZM350.93 73L348.92 58.56L348.88 58.23Q348.27 53.89 345.35 50.28Q348.92 46.18 348.92 40.72L348.92 28.87Q348.92 22.8 344.66 18.53Q340.35 14.27 334.32 14.22L319.55 14.22L319.55 73L331.33 73L331.33 55.36L333.79 55.36Q334.98 55.36 335.96 56.22Q336.95 57.09 337.15 58.32L337.19 58.85L339.2 73L350.93 73ZM382.02 22.39L370.25 22.39L370.25 49.83L364.38 49.83L364.38 22.39L352.61 22.39L352.61 73.04L364.38 73.04L364.38 61.6L370.25 61.6L370.25 73.04L382.02 73.04L382.02 22.39ZM398.06 34.16L412.17 34.16L412.17 22.39L386.29 22.39L386.29 73.04L412.17 73.04L412.17 61.27L398.06 61.27L398.06 55.36L409.83 55.36L409.83 43.59L398.06 43.59L398.06 34.16ZM433.46 49.46L427.59 49.46L427.59 35.88Q427.59 34.65 428.45 33.79Q429.31 32.93 430.54 32.93Q431.73 32.93 432.59 33.79Q433.46 34.65 433.46 35.88L433.46 49.46ZM430.54 21.16Q424.43 21.16 420.13 25.46Q415.82 29.77 415.82 35.88L415.82 73L427.59 73L427.59 61.23L433.46 61.23L433.46 73L445.23 73L445.23 35.88Q445.23 29.77 440.92 25.46Q436.61 21.16 430.54 21.16ZM478.86 22.43L467.13 22.43L467.13 59.55Q467.13 60.74 466.27 61.6Q465.41 62.46 464.18 62.46Q462.99 62.46 462.13 61.6Q461.26 60.74 461.26 59.55L461.26 22.43L449.49 22.43L449.49 59.55Q449.49 65.62 453.8 69.92Q458.11 74.23 464.18 74.23Q470.29 74.23 474.59 69.92Q478.86 65.62 478.86 59.55L478.86 22.43ZM530.17 72.96L530.17 35.88Q530.17 29.81 525.86 25.5Q521.56 21.2 515.49 21.2Q510.56 21.2 506.67 24.15Q502.98 21.36 498.38 21.2L498.38 21.2L497.81 21.2Q491.74 21.24 487.47 25.5Q483.21 29.77 483.17 35.84L483.17 72.96L494.9 72.96L494.9 35.88Q494.9 35.72 494.94 35.59Q494.94 35.59 494.94 35.47Q494.98 35.35 494.98 35.31Q494.98 35.31 495.02 35.18Q495.02 35.02 495.06 35.02L495.1 34.86Q495.14 34.73 495.14 34.73Q495.18 34.65 495.27 34.53Q495.27 34.45 495.27 34.49Q495.31 34.4 495.39 34.28Q495.51 34.12 495.43 34.24Q495.47 34.16 495.55 34.04Q495.55 34.04 495.59 34.04Q495.59 34.04 495.59 33.99Q495.68 33.91 495.76 33.83Q495.76 33.79 495.76 33.79Q495.88 33.71 495.96 33.63Q496.78 32.93 497.85 32.93L497.85 32.93Q499.08 32.93 499.94 33.79Q500.8 34.65 500.8 35.88L500.8 72.96L512.53 72.96L512.53 35.88Q512.53 34.65 513.39 33.79Q514.26 32.93 515.49 32.93Q516.68 32.93 517.54 33.79Q518.4 34.65 518.4 35.88L518.4 72.96L530.17 72.96ZM546.13 34.16L560.23 34.16L560.23 22.39L534.35 22.39L534.35 73.04L560.23 73.04L560.23 61.27L546.13 61.27L546.13 55.36L557.9 55.36L557.9 43.59L546.13 43.59L546.13 34.16Z" />
</svg>